<svg xmlns="http://www.w3.org/2000/svg" width="17" height="20" viewBox="0 0 17 20" fill="none">
  <path d="M9.21 4.29C9.1149 4.19896 9.00275 4.12759 8.88 4.08C8.63654 3.97998 8.36346 3.97998 8.12 4.08C7.99725 4.12759 7.8851 4.19896 7.79 4.29L3.79 8.29C3.69676 8.38324 3.6228 8.49393 3.57234 8.61575C3.52188 8.73757 3.49591 8.86814 3.49591 9C3.49591 9.13186 3.52188 9.26243 3.57234 9.38425C3.6228 9.50607 3.69676 9.61676 3.79 9.71C3.88324 9.80324 3.99393 9.8772 4.11575 9.92766C4.23757 9.97812 4.36814 10.0041 4.5 10.0041C4.63186 10.0041 4.76243 9.97812 4.88425 9.92766C5.00607 9.8772 5.11676 9.80324 5.21 9.71L7.5 7.41V19C7.5 19.2652 7.60536 19.5196 7.79289 19.7071C7.98043 19.8946 8.23478 20 8.5 20C8.76522 20 9.01957 19.8946 9.20711 19.7071C9.39464 19.5196 9.5 19.2652 9.5 19V7.41L11.79 9.71C11.883 9.80373 11.9936 9.87812 12.1154 9.92889C12.2373 9.97966 12.368 10.0058 12.5 10.0058C12.632 10.0058 12.7627 9.97966 12.8846 9.92889C13.0064 9.87812 13.117 9.80373 13.21 9.71C13.3037 9.61704 13.3781 9.50644 13.4289 9.38458C13.4797 9.26272 13.5058 9.13201 13.5058 9C13.5058 8.86799 13.4797 8.73728 13.4289 8.61542C13.3781 8.49356 13.3037 8.38296 13.21 8.29L9.21 4.29ZM15.5 0H1.5C1.23478 0 0.98043 0.105357 0.792893 0.292893C0.605357 0.48043 0.5 0.734784 0.5 1C0.5 1.26522 0.605357 1.51957 0.792893 1.70711C0.98043 1.89464 1.23478 2 1.5 2H15.5C15.7652 2 16.0196 1.89464 16.2071 1.70711C16.3946 1.51957 16.5 1.26522 16.5 1C16.5 0.734784 16.3946 0.48043 16.2071 0.292893C16.0196 0.105357 15.7652 0 15.5 0V0Z" fill="#4E3E25"/>
  </svg>